<?xml version="1.0" standalone="no"?>
<!DOCTYPE svg PUBLIC "-//W3C//DTD SVG 1.0//EN" "http://www.w3.org/TR/2001/REC-SVG-20010904/DTD/svg10.dtd">
<svg xmlns="http://www.w3.org/2000/svg" xmlns:xlink="http://www.w3.org/1999/xlink" id="body_1" width="135" height="135">

<g transform="matrix(0.10000001 0 0 0.10000001 0 0)">
    <path transform="matrix(1 0 0 1 688.96484 65.671875)"  d="M0 0C 1.0796856 0.38914582 2.1593711 0.77829164 3.2717743 1.1792297C 6.8424973 2.4687204 10.407415 3.7735612 13.972656 5.078125C 16.496813 5.9922357 19.021301 6.9053617 21.546387 7.8168945C 26.129381 9.4724045 30.711086 11.131395 35.2911 12.795137C 46.593185 16.900385 57.916348 20.9461 69.24255 24.984283C 72.69372 26.215096 76.144295 27.447548 79.59473 28.68042C 97.78325 35.17786 115.9857 41.635696 134.19026 48.088013C 154.10968 55.148346 174.01413 62.24924 193.90472 69.39044C 208.71062 74.70605 223.52335 80.00158 238.34766 85.265625C 255.02031 91.1864 271.68622 97.125824 288.34766 103.078125C 289.52386 103.49829 290.7001 103.91845 291.91196 104.35135C 303.7522 108.58094 315.59192 112.81195 327.43097 117.04491C 333.17386 119.09813 338.91696 121.150795 344.66016 123.203125C 345.8035 123.61171 346.94684 124.02029 348.12482 124.44125C 367.4721 131.3538 386.8331 138.22728 406.19785 145.09068C 425.71674 152.00891 445.22144 158.96545 464.70987 165.96902C 478.08618 170.77562 491.47226 175.55347 504.8711 180.29688C 506.30606 180.80505 507.741 181.31323 509.17596 181.82141C 515.4747 184.05171 521.77386 186.28055 528.075 188.50388C 530.03406 189.1955 531.99274 189.88812 533.9513 190.58118C 536.3476 191.429 538.7445 192.27507 541.1422 193.11902C 546.5247 195.02565 551.82416 196.99097 557.03516 199.32812C 556.44275 209.51837 555.5282 219.62497 554.3416 229.76486C 554.1689 231.26453 553.99646 232.76424 553.8243 234.26398C 553.35394 238.3536 552.87915 242.4427 552.4036 246.53174C 551.8869 250.98172 551.3744 255.43217 550.8613 259.8826C 549.96545 267.64905 549.06696 275.4152 548.1666 283.18115C 546.8369 294.6516 545.5115 306.12256 544.18695 317.59363C 541.9785 336.71893 539.7668 355.84387 537.55304 374.9686C 535.3767 393.77023 533.2013 412.572 531.0275 431.37393C 530.89276 432.53934 530.75806 433.70474 530.6192 434.90546C 529.66327 443.17435 528.70734 451.44327 527.75146 459.71216C 527.6158 460.8861 527.48004 462.06003 527.3402 463.26953C 526.10187 473.98215 524.86346 484.69476 523.6252 495.40738C 522.239 507.3993 520.8526 519.3912 519.46576 531.383C 512.404 592.44586 505.36304 653.51105 498.3594 714.5806C 496.92938 727.0502 495.49814 739.51965 494.0664 751.989C 493.8523 753.8539 493.63818 755.7187 493.42407 757.58356C 492.58435 764.89746 491.7446 772.21136 490.90475 779.52527C 488.58728 799.70776 486.27316 819.8907 483.96603 840.0744C 482.3791 853.95685 480.78732 867.83875 479.19046 881.7201C 478.25357 889.86597 477.3207 898.01227 476.3937 906.15924C 475.70874 912.1755 475.01657 918.1908 474.3215 924.2059C 474.0419 926.6358 473.7647 929.066 473.49008 931.49646C 473.11896 934.7783 472.73926 938.05914 472.35733 941.3398C 472.25195 942.2904 472.14655 943.24097 472.03796 944.2204C 471.0545 952.521 471.0545 952.521 469.03516 956.3281C 466.96997 957.8828 466.96997 957.8828 464.39844 959.2031C 463.44107 959.70624 462.4837 960.2094 461.4973 960.7278C 459.93823 961.51996 459.93823 961.51996 458.34766 962.3281C 456.13828 963.48627 453.92996 964.6465 451.72266 965.8086C 450.03848 966.6891 450.03848 966.6891 448.3203 967.5874C 443.43942 970.17365 438.64297 972.8999 433.84766 975.6406C 425.23648 980.5376 416.5871 985.3615 407.91016 990.1406C 407.30252 990.47534 406.6949 990.81006 406.06882 991.1549C 402.96817 992.8625 399.86703 994.5692 396.76562 996.2754C 390.6448 999.6429 384.5273 1003.0165 378.41016 1006.3906C 377.80936 1006.722 377.20856 1007.0533 376.58954 1007.3947C 366.78143 1012.8044 356.98755 1018.2393 347.19873 1023.68384C 338.37723 1028.5881 329.54163 1033.4666 320.70215 1038.3384C 311.97034 1043.1514 303.24847 1047.9817 294.53516 1052.8281C 285.21213 1058.0137 275.8781 1063.1787 266.53516 1068.3281C 252.68405 1075.9629 238.85674 1083.64 225.03516 1091.3281C 210.60405 1099.3552 196.16489 1107.3671 181.7027 1115.3381C 172.97072 1120.1511 164.24864 1124.9817 155.53516 1129.8281C 145.60243 1135.3528 135.65617 1140.8523 125.70215 1146.3384C 116.970345 1151.1514 108.24847 1155.9817 99.53516 1160.8281C 90.212135 1166.0137 80.87811 1171.1787 71.53516 1176.3281C 58.816692 1183.3386 46.117794 1190.3838 33.42627 1197.4429C 30.51805 1199.0597 27.609194 1200.6753 24.699707 1202.2898C 23.507515 1202.9514 22.315456 1203.6134 21.123535 1204.2755C 18.228315 1205.8837 15.331034 1207.4877 12.430176 1209.0857C 7.575275 1211.7662 2.7528427 1214.465 -1.96875 1217.375C -3.065702 1218.0385 -3.065702 1218.0385 -4.1848145 1218.7153C -5.4823704 1219.5065 -6.7677393 1220.3182 -8.035889 1221.1558C -9.730469 1222.1797 -9.730469 1222.1797 -12.964844 1223.3281C -15.737897 1222.5377 -17.513004 1221.736 -19.964844 1220.3281C -21.168022 1219.6995 -21.168022 1219.6995 -22.395508 1219.0581C -25.269733 1217.5543 -28.11801 1216.0082 -30.964844 1214.4531C -32.545555 1213.5936 -32.545555 1213.5936 -34.158203 1212.7168C -42.25908 1208.2969 -50.295895 1203.7693 -58.316406 1199.2056C -65.15304 1195.3251 -72.04256 1191.5535 -78.96484 1187.8281C -87.81594 1183.0648 -96.58461 1178.1744 -105.32031 1173.2031C -112.15584 1169.3237 -119.04391 1165.5527 -125.96484 1161.8281C -134.81595 1157.0648 -143.58461 1152.1744 -152.32031 1147.2031C -159.15584 1143.3237 -166.04398 1139.5529 -172.96484 1135.8281C -180.74298 1131.6405 -188.47244 1127.3809 -196.15234 1123.0156C -204.7648 1118.1208 -213.41287 1113.2948 -222.08984 1108.5156C -222.69748 1108.1809 -223.30513 1107.8462 -223.93118 1107.5013C -227.03181 1105.7937 -230.13295 1104.087 -233.23438 1102.3809C -239.35521 1099.0133 -245.47269 1095.6398 -251.58984 1092.2656C -252.19064 1091.9343 -252.79146 1091.6029 -253.41046 1091.2616C -263.21857 1085.8519 -273.01245 1080.4169 -282.80127 1074.9724C -291.013 1070.4071 -299.23642 1065.8633 -307.46484 1061.3281C -322.42966 1053.0795 -337.36594 1044.7799 -352.29883 1036.4736C -365.619 1029.0653 -378.94885 1021.6753 -392.2973 1014.3181C -402.14365 1008.89087 -411.9753 1003.4376 -421.80078 997.97266C -429.40466 993.7453 -437.01785 989.5353 -444.63705 985.33563C -454.39758 979.95544 -464.15717 974.57355 -473.90527 969.1709C -475.58984 968.23773 -477.27536 967.30634 -478.96094 966.375C -496.83093 956.46204 -496.83093 956.46204 -498.96484 954.3281C -499.22318 952.8309 -499.42136 951.3232 -499.5951 949.81384C -499.71048 948.8301 -499.82587 947.8464 -499.94473 946.8329C -500.13077 945.18896 -500.13077 945.18896 -500.32053 943.5119C -500.45496 942.35455 -500.5894 941.19727 -500.72787 940.0049C -501.10342 936.7638 -501.47504 933.5223 -501.84503 930.2805C -502.24738 926.76385 -502.6548 923.2478 -503.06155 919.7316C -503.77502 913.55817 -504.48523 907.3843 -505.19333 901.2102C -506.2466 892.0267 -507.30487 882.84375 -508.36417 873.6609C -510.14722 858.20294 -511.92618 842.7445 -513.7029 827.2858C -515.4668 811.93823 -517.2325 796.5908 -519.0007 781.2437C -519.1106 780.28925 -519.2206 779.3347 -519.33386 778.35126C -519.8925 773.50275 -520.4511 768.65424 -521.00977 763.8057C -524.97345 729.40436 -528.9331 695.0025 -532.8904 660.60034C -536.72076 627.30164 -540.55286 594.00305 -544.38745 560.70483C -544.5051 559.6828 -544.62286 558.66077 -544.7441 557.6078C -546.0442 546.3184 -547.3443 535.0291 -548.6444 523.73975C -550.95184 503.704 -553.25903 483.6682 -555.5661 463.6324C -555.67804 462.66046 -555.79 461.68854 -555.9053 460.68713C -559.3091 431.12662 -562.7118 401.56595 -566.11346 372.0052C -566.2175 371.10065 -566.3216 370.19614 -566.42883 369.26422C -568.4015 352.12195 -570.3741 334.97964 -572.3462 317.8373C -572.79083 313.97247 -573.23553 310.10767 -573.6803 306.24286C -574.43695 299.6682 -575.19336 293.09357 -575.948 286.51874C -576.3438 283.07043 -576.7399 279.6222 -577.13617 276.17398C -577.21277 275.5076 -577.2893 274.84125 -577.3682 274.1547C -578.3483 265.6306 -579.34045 257.108 -580.3453 248.58676C -580.9204 243.7087 -581.4922 238.83023 -582.0639 233.95175C -582.4521 230.65431 -582.84576 227.35756 -583.23975 224.0608C -583.47144 222.0857 -583.7028 220.11053 -583.9339 218.13535C -584.0397 217.26567 -584.14545 216.39598 -584.25446 215.49995C -584.88165 210.07242 -585.0554 204.79237 -584.96484 199.32812C -574.2317 194.52322 -563.11206 190.78389 -552.01666 186.91898C -545.96387 184.80989 -539.9156 182.68794 -533.8672 180.5664C -532.6232 180.13028 -531.3793 179.69414 -530.09766 179.2448C -517.5749 174.84949 -505.0796 170.37881 -492.58984 165.89062C -490.38998 165.10048 -488.19012 164.31036 -485.99023 163.52026C -482.6648 162.32579 -479.3394 161.13124 -476.01407 159.93642C -463.5234 155.44911 -451.0262 150.98004 -438.52734 146.51562C -436.80313 145.89969 -436.80313 145.89969 -435.0441 145.2713C -415.64035 138.34106 -396.22318 131.44904 -376.80276 124.565765C -357.26828 117.64197 -337.74887 110.67742 -318.2438 103.67111C -300.16653 97.17881 -282.06958 90.74327 -263.96484 84.328125C -244.43077 77.40646 -224.90746 70.45609 -205.40234 63.453125C -189.49414 57.741596 -173.58038 52.046604 -157.65234 46.390625C -135.08417 38.376232 -112.530365 30.321795 -89.97824 22.262344C -81.69103 19.301125 -73.40256 16.34346 -65.11348 13.387466C -61.21814 11.998231 -57.322983 10.608489 -53.427826 9.21875C -50.309273 8.106148 -47.190556 6.9939995 -44.071625 5.8824463C -40.62557 4.654262 -37.179928 3.424913 -33.734375 2.1953125C -32.713127 1.8316861 -31.691875 1.4680597 -30.639679 1.0934143C -29.697445 0.75691867 -28.75521 0.42042297 -27.784424 0.07373047C -26.9696 -0.21680206 -26.154778 -0.5073346 -25.315262 -0.80667114C -23.648972 -1.420043 -21.997814 -2.0752516 -20.35907 -2.7588196C -13.231662 -5.476908 -6.731914 -2.4901915 0 0z" stroke="none" fill="#6610F2" fill-rule="nonzero" />
    <path transform="matrix(1 0 0 1 675 62)"  d="M0 0C 4.0004086 0.66673476 6.9829626 1.2094485 10.657715 2.5402832C 11.539912 2.856869 12.422109 3.1734545 13.331039 3.4996338C 14.281405 3.8465126 15.231772 4.1933913 16.210938 4.5507812C 17.732502 5.0990157 17.732502 5.0990157 19.284805 5.658325C 21.489014 6.453201 23.692377 7.2504244 25.894989 8.049713C 29.440155 9.336143 32.987457 10.616511 36.5354 11.895264C 40.263584 13.239135 43.99169 14.583207 47.71895 15.929642C 60.614273 20.587683 73.524605 25.203434 86.4375 29.8125C 88.760666 30.642248 91.083824 31.472002 93.40698 32.301758C 111.64684 38.81406 129.8997 45.289444 148.15451 51.759686C 168.0741 58.82013 187.97878 65.92104 207.86957 73.06232C 222.67546 78.37792 237.48819 83.673454 252.3125 88.9375C 268.98517 94.85828 285.65106 100.7977 302.3125 106.75C 303.4887 107.170166 304.66495 107.590324 305.8768 108.023224C 317.71704 112.252815 329.55676 116.483826 341.3958 120.71678C 347.1387 122.770004 352.8818 124.82267 358.625 126.875C 359.76834 127.283585 360.91168 127.69216 362.08966 128.11313C 381.43695 135.02568 400.79794 141.89915 420.1627 148.76256C 439.68158 155.68079 459.18628 162.63733 478.6747 169.6409C 492.05103 174.4475 505.4371 179.22534 518.83594 183.96875C 520.2709 184.47693 521.7059 184.9851 523.1408 185.49329C 529.4395 187.72359 535.7387 189.95242 542.03986 192.17575C 543.9989 192.86737 545.9576 193.56 547.91614 194.25305C 550.31244 195.10088 552.70935 195.94695 555.10706 196.7909C 560.48956 198.69753 565.789 200.66284 571 203C 570.4076 213.19025 569.49304 223.29684 568.30646 233.43674C 568.1337 234.9364 567.9613 236.43611 567.7891 237.93585C 567.3188 242.02548 566.844 246.11458 566.36847 250.20361C 565.85175 254.6536 565.33923 259.10406 564.8262 263.55447C 563.9303 271.32092 563.0318 279.08707 562.1315 286.85303C 560.80176 298.3235 559.4763 309.79443 558.1518 321.2655C 555.94336 340.3908 553.7316 359.51575 551.5179 378.64047C 549.34155 397.4421 547.16614 416.24387 544.9924 435.0458C 544.8576 436.2112 544.7229 437.37662 544.58405 438.57733C 543.6281 446.84622 542.6722 455.11514 541.7163 463.38403C 541.5806 464.55798 541.4449 465.7319 541.30505 466.9414C 540.0667 477.65402 538.8283 488.36664 537.59 499.07925C 536.20386 511.07117 534.81744 523.06305 533.4306 535.0549C 526.36884 596.11774 519.3279 657.1829 512.3243 718.2525C 510.89423 730.72205 509.46298 743.1915 508.03125 755.6609C 507.81714 757.52576 507.60303 759.39056 507.38892 761.25543C 506.5492 768.56934 505.70944 775.88324 504.8696 783.19714C 502.55212 803.37964 500.238 823.56256 497.93088 843.7463C 496.34393 857.6287 494.75217 871.5106 493.1553 885.39197C 492.2184 893.53784 491.28555 901.68414 490.35855 909.8311C 489.67358 915.84735 488.9814 921.8627 488.28635 927.87775C 488.00674 930.3077 487.72955 932.73785 487.45493 935.16833C 487.0838 938.4502 486.7041 941.731 486.32217 945.01166C 486.1641 946.43756 486.1641 946.43756 486.0028 947.8923C 485.01935 956.1929 485.01935 956.1929 483 960C 480.9348 961.5547 480.9348 961.5547 478.36328 962.875C 477.4059 963.3781 476.44855 963.8813 475.46216 964.39966C 474.42276 964.9278 473.3834 965.4559 472.3125 966C 470.10312 967.15814 467.8948 968.31836 465.6875 969.48047C 464.00333 970.36096 464.00333 970.36096 462.28516 971.2593C 457.40427 973.8455 452.60782 976.5718 447.8125 979.3125C 439.20132 984.2095 430.55194 989.0334 421.875 993.8125C 421.26736 994.1472 420.65973 994.48193 420.03366 994.8268C 416.933 996.53436 413.83188 998.2411 410.73047 999.94727C 404.60965 1003.31476 398.49216 1006.68835 392.375 1010.0625C 391.7742 1010.39386 391.1734 1010.72516 390.55438 1011.0666C 380.74628 1016.47626 370.9524 1021.9112 361.16357 1027.3557C 352.34207 1032.26 343.50647 1037.1384 334.667 1042.0103C 325.93518 1046.8232 317.21332 1051.6536 308.5 1056.5C 299.17697 1061.6855 289.84296 1066.8506 280.5 1072C 266.6489 1079.6348 252.82158 1087.3119 239 1095C 224.5689 1103.0271 210.12973 1111.039 195.66754 1119.01C 186.93556 1123.823 178.21349 1128.6536 169.5 1133.5C 159.56728 1139.0247 149.62102 1144.5242 139.66699 1150.0103C 130.9352 1154.8232 122.21331 1159.6536 113.5 1164.5C 104.17698 1169.6855 94.84296 1174.8506 85.5 1180C 72.78154 1187.0105 60.082638 1194.0557 47.391113 1201.1147C 43.885315 1203.0637 40.378387 1205.0107 36.871094 1206.957C 35.098694 1207.9408 33.326317 1208.9246 31.553955 1209.9083C 29.838766 1210.8605 28.123486 1211.8123 26.408203 1212.7642C 19.386942 1216.6638 12.376792 1220.5824 5.4016113 1224.564C 1.1077555 1227 1.1077555 1227 0 1227C 0 822.09 0 417.18 0 0z" stroke="none" fill="#5014B2" fill-rule="nonzero" />
    <path transform="matrix(1 0 0 1 714 443)"  d="M0 0C 222.54492 0 222.54492 0 265 23C 265.66772 23.354652 266.33548 23.709307 267.02344 24.074707C 312.27725 48.164566 344.24695 87.593796 359.55615 136.4602C 366.21423 158.63643 369.38898 180.5236 369.25 203.625C 369.24655 204.55641 369.24313 205.48784 369.2396 206.44748C 369.10486 237.5769 365.70898 269.20734 353 298C 352.67 298.99 352.34 299.98 352 301C 351.34 301 350.68 301 350 301C 349.83722 302.32184 349.83722 302.32184 349.67114 303.6704C 348.98648 307.06702 347.98862 309.2903 346.26172 312.27344C 345.69525 313.25507 345.12878 314.2367 344.54517 315.24805C 343.93213 316.27994 343.3191 317.31183 342.6875 318.375C 341.73798 319.98083 341.73798 319.98083 340.7693 321.61914C 329.27252 340.779 315.0921 358.65027 297 372C 296.0924 372.6794 296.0924 372.6794 295.1665 373.37256C 278.9057 385.4854 261.856 394.60638 243 402C 241.45892 402.61487 241.45892 402.61487 239.88672 403.2422C 167.70245 430.8326 63.30838 416 0 416C 0 278.72 0 141.44 0 0z" stroke="none" fill="#FEFDFD" fill-rule="nonzero" />
    <path transform="matrix(1 0 0 1 272 443)"  d="M0 0C 29.7 0 59.4 0 90 0C 105.10526 18.342106 105.10526 18.342106 111.51172 26.761719C 114.26414 30.365469 117.09774 33.902412 119.9375 37.4375C 127.42577 46.76148 134.80716 56.167076 142.14062 65.61328C 145.45094 69.86246 148.78331 74.09434 152.11328 78.328125C 153.988 80.71173 155.86043 83.09709 157.73047 85.484375C 162.95631 92.15253 168.21997 98.788315 173.52148 105.396484C 176.85466 109.555435 180.15485 113.7386 183.4375 117.9375C 187.4193 123.02909 191.47328 128.05687 195.5625 133.0625C 199.46686 137.84387 203.31876 142.65424 207.0625 147.5625C 210.62883 152.23683 214.25606 156.85333 217.9375 161.4375C 223.21149 168.00473 228.42955 174.61353 233.62354 181.24414C 235.52243 183.66643 237.42535 186.08553 239.32861 188.5044C 240.26427 189.69463 241.19887 190.88568 242.13232 192.07764C 244.15309 194.65788 246.18336 197.22641 248.2461 199.77344C 248.88676 200.57008 249.52742 201.36671 250.1875 202.1875C 250.73793 202.86168 251.28836 203.53586 251.85547 204.23047C 253 206 253 206 253 209C 253.66 209 254.32 209 255 209C 255.495 105.545 255.495 105.545 256 0C 293.95 0 331.9 0 371 0C 371 137.28 371 274.56 371 416C 340.64 416 310.28 416 279 416C 277.02 413.36 275.04 410.72 273 408C 271.65942 406.3224 270.30637 404.6546 268.9375 403C 268.16794 402.06543 267.39835 401.13086 266.60547 400.16797C 265.98163 399.41074 265.98163 399.41074 265.3452 398.63818C 262.80096 395.53983 260.27655 392.4253 257.75 389.3125C 254.39186 385.17523 251.03299 381.03864 247.66406 376.91016C 242.50922 370.58826 237.3883 364.2474 232.375 357.8125C 228.41125 352.72647 224.3101 347.78366 220.11792 342.885C 216.40192 338.52325 212.85968 334.0432 209.34253 329.5205C 204.99002 323.94278 200.4921 318.49005 195.9834 313.03833C 192.32088 308.6085 188.69774 304.15198 185.1211 299.65234C 182.26804 296.08472 179.3835 292.54303 176.5 289C 172.35774 283.9092 168.23505 278.8044 164.14453 273.67188C 161.90137 270.8771 159.63948 268.09824 157.37524 265.32056C 152.71844 259.6075 148.09378 253.87572 143.5625 248.0625C 138.85323 242.02487 134.00972 236.10449 129.12134 230.21118C 124.68199 224.85492 120.348274 219.43535 116 214C 115.67 280.66 115.34 347.32 115 416C 77.05 416 39.1 416 0 416C 0 278.72 0 141.44 0 0z" stroke="none" fill="#FDFCFD" fill-rule="nonzero" />
    <path transform="matrix(1 0 0 1 828 543)"  d="M0 0C 72.25436 0 72.25436 0 86.375 7.75C 87.35123 8.261073 87.35123 8.261073 88.34717 8.782471C 94.29821 11.982422 99.71411 15.796982 105 20C 106.03125 20.763124 107.0625 21.52625 108.125 22.3125C 128.34068 41.209774 138.00227 69.003654 139.22241 96.15723C 139.36023 100.354996 139.38625 104.55026 139.375 108.75C 139.37479 109.4878 139.37457 110.22559 139.37436 110.98575C 139.34009 123.02003 138.3927 134.4085 135 146C 134.69522 147.05984 134.69522 147.05984 134.38428 148.14111C 126.88619 173.58755 111.36117 194.124 88 207C 87.12988 207.4834 86.259766 207.9668 85.36328 208.46484C 59.586823 221.45175 26.54196 216 0 216C 0 144.72 0 73.44 0 0z" stroke="none" fill="#5015B2" fill-rule="nonzero" />
</g>
</svg>