<?xml version="1.0" encoding="UTF-8"?>
<svg version="1.1" xmlns="http://www.w3.org/2000/svg" width="1350" height="1350">
<path d="M0 0 C1.07968552 0.38914581 2.15937103 0.77829163 3.27177429 1.17922974 C6.84249756 2.4687205 10.40741539 3.77356116 13.97265625 5.078125 C16.49681308 5.99223562 19.02130052 6.90536151 21.54638672 7.81689453 C26.12938212 9.47240458 30.7110861 11.13139507 35.29109955 12.79513741 C46.59318626 16.90038576 57.91634822 20.94610103 69.24255371 24.98428345 C72.69371986 26.21509501 76.14429581 27.44754838 79.59472656 28.68041992 C97.78325145 35.17786051 115.98570251 41.63569634 134.19026566 48.0880127 C154.1096778 55.14834536 174.01412899 62.24923991 193.90472412 69.39044189 C208.71061841 74.70604896 223.5233506 80.001577 238.34765625 85.265625 C255.02031418 91.1864042 271.68622458 97.12582449 288.34765625 103.078125 C289.52387543 103.49828888 290.7000946 103.91845276 291.91195679 104.35134888 C303.75219873 108.58093749 315.59193078 112.81195051 327.43096924 117.04490662 C333.17385927 119.09812828 338.91694884 121.15079129 344.66015625 123.203125 C345.80349426 123.61170746 346.94683228 124.02028992 348.12481689 124.44125366 C367.47210591 131.35381198 386.83309759 138.22727368 406.19785309 145.09069061 C425.71672157 152.00891093 445.22143284 158.96544681 464.70986938 165.96902466 C478.08617248 170.77562519 491.47227338 175.55346517 504.87109375 180.296875 C506.30605297 180.80504708 507.74100984 181.31322578 509.17596436 181.82141113 C515.47464912 184.05171197 521.77383946 186.28055009 528.07498741 188.50388336 C530.03405707 189.19549557 531.99276325 189.88812611 533.95132446 190.58117676 C536.34761329 191.42900163 538.74452666 192.27506422 541.1421814 193.11901855 C546.5247021 195.02565143 551.82416192 196.99097118 557.03515625 199.328125 C556.4427255 209.51836625 555.52818323 219.62497218 554.34161377 229.76486206 C554.16886751 231.26452943 553.9964393 232.76423346 553.82429636 234.2639702 C553.35396288 238.35360316 552.8791744 242.44270797 552.40360931 246.53173541 C551.88688272 250.98171504 551.37438593 255.43218214 550.86134911 259.88258839 C549.96546498 267.64905138 549.06693483 275.4152046 548.16664505 283.18115807 C546.83692318 294.65161357 545.51147642 306.12256023 544.18694742 317.59361639 C541.97849189 336.71893973 539.76679048 355.84388634 537.55303955 374.96859741 C535.37668968 393.77023936 533.20129929 412.57199176 531.02752686 431.37393188 C530.89278903 432.53933978 530.7580512 433.70474767 530.6192304 434.90547096 C529.66324483 443.17435934 528.70734213 451.4432573 527.75146484 459.7121582 C527.61575788 460.88609596 527.48005092 462.06003371 527.34023163 463.26954533 C526.10185731 473.98215377 524.8634875 484.69476274 523.6251868 495.40737969 C522.23899264 507.39929011 520.85259061 519.39117646 519.46575546 531.38301277 C512.40398806 592.44586787 505.36302436 653.511048 498.35942063 714.58060236 C496.92936759 727.05018213 495.49814845 739.51962774 494.06640625 751.98901367 C493.85229485 753.85385488 493.63818495 755.71869626 493.42407656 757.58353782 C492.58433843 764.89744983 491.74459667 772.21136143 490.90475368 779.5252614 C488.58727914 799.70777802 486.2731503 819.89067029 483.96603273 840.07437361 C482.37910056 853.95685402 480.78732003 867.83877135 479.190467 881.72011417 C478.25357858 889.86596272 477.32071438 898.01224873 476.39370909 906.15922804 C475.70874093 912.17544884 475.01657948 918.19081802 474.32151175 924.20588136 C474.04190057 926.63579311 473.76469795 929.06598341 473.49008799 931.49646544 C473.1189504 934.77834709 472.73926818 938.0591279 472.35733032 941.33976746 C472.25193951 942.2903764 472.1465487 943.24098535 472.03796422 944.22040063 C471.05449992 952.52096828 471.05449992 952.52096828 469.03515625 956.328125 C466.9699707 957.8828125 466.9699707 957.8828125 464.3984375 959.203125 C463.44106689 959.70626221 462.48369629 960.20939941 461.49731445 960.7277832 C459.93823364 961.51995239 459.93823364 961.51995239 458.34765625 962.328125 C456.138281 963.48629582 453.92997164 964.64650192 451.72265625 965.80859375 C450.03849609 966.689104 450.03849609 966.689104 448.3203125 967.58740234 C443.43942574 970.17366294 438.64298486 972.89989031 433.84765625 975.640625 C425.23647869 980.5375856 416.58709837 985.36152177 407.91015625 990.140625 C407.30251434 990.47533813 406.69487244 990.81005127 406.06881714 991.15490723 C402.96818274 992.86251634 399.86704487 994.56920858 396.765625 996.27539062 C390.6447939 999.64288733 384.52731327 1003.01646011 378.41015625 1006.390625 C377.80935242 1006.72196442 377.20854858 1007.05330383 376.58953857 1007.39468384 C366.78143425 1012.80436608 356.9875467 1018.23931922 347.19873047 1023.68383789 C338.37722365 1028.58817408 329.5416228 1033.46654288 320.70214844 1038.33837891 C311.97034807 1043.15134727 303.24846627 1047.98172891 294.53515625 1052.828125 C285.21213689 1058.01364514 275.87811114 1063.17865472 266.53515625 1068.328125 C252.6840502 1075.9628783 238.85672829 1083.64002737 225.03515625 1091.328125 C210.60405467 1099.35526674 196.16487948 1107.36711693 181.70269775 1115.33810425 C172.97071179 1120.15116001 164.24864523 1124.98162937 155.53515625 1129.828125 C145.60243095 1135.35276729 135.65617498 1140.85226252 125.70214844 1146.33837891 C116.97034807 1151.15134727 108.24846627 1155.98172891 99.53515625 1160.828125 C90.21213689 1166.01364514 80.87811114 1171.17865472 71.53515625 1176.328125 C58.81669262 1183.33856386 46.11779242 1190.38375789 33.42626953 1197.44287109 C30.51804986 1199.05966536 27.60919364 1200.67529781 24.69970703 1202.28981018 C23.50751438 1202.95146209 22.31545625 1203.61335646 21.12353516 1204.27549744 C18.2283157 1205.88364529 15.33103344 1207.48771412 12.43017578 1209.08569336 C7.57527475 1211.7662055 2.75284264 1214.46494536 -1.96875 1217.375 C-3.0657019 1218.03846436 -3.0657019 1218.03846436 -4.18481445 1218.71533203 C-5.48237057 1219.50650576 -6.76773913 1220.31826277 -8.03588867 1221.15576172 C-9.73046875 1222.1796875 -9.73046875 1222.1796875 -12.96484375 1223.328125 C-15.73789721 1222.53773778 -17.5130052 1221.73592785 -19.96484375 1220.328125 C-21.16802246 1219.69946533 -21.16802246 1219.69946533 -22.39550781 1219.05810547 C-25.26973419 1217.55431939 -28.11801015 1216.00811814 -30.96484375 1214.453125 C-32.54555664 1213.59364258 -32.54555664 1213.59364258 -34.15820312 1212.71679688 C-42.25907726 1208.29682083 -50.29589359 1203.76929304 -58.31640625 1199.20556641 C-65.1530383 1195.32503258 -72.04255564 1191.55344435 -78.96484375 1187.828125 C-87.81594109 1183.06479189 -96.58460952 1178.17446897 -105.3203125 1173.203125 C-112.15583645 1169.32375534 -119.04390716 1165.55271701 -125.96484375 1161.828125 C-134.81594109 1157.06479189 -143.58460952 1152.17446897 -152.3203125 1147.203125 C-159.15583968 1143.3237535 -166.04397778 1139.55285195 -172.96484375 1135.828125 C-180.74298658 1131.64047265 -188.47244026 1127.38088161 -196.15234375 1123.015625 C-204.7647947 1118.12086966 -213.41287384 1113.29474353 -222.08984375 1108.515625 C-222.69748566 1108.18091187 -223.30512756 1107.84619873 -223.93118286 1107.50134277 C-227.03181726 1105.79373366 -230.13295513 1104.08704142 -233.234375 1102.38085938 C-239.3552061 1099.01336267 -245.47268673 1095.63978989 -251.58984375 1092.265625 C-252.19064758 1091.93428558 -252.79145142 1091.60294617 -253.41046143 1091.26156616 C-263.21856575 1085.85188392 -273.0124533 1080.41693078 -282.80126953 1074.97241211 C-291.01301265 1070.4070754 -299.23642776 1065.86330515 -307.46484375 1061.328125 C-322.42965576 1053.07949508 -337.36593136 1044.77989262 -352.29882812 1036.47363281 C-365.6189734 1029.06532498 -378.94884828 1021.67529001 -392.29730225 1014.31814575 C-402.14363979 1008.8908613 -411.97530748 1003.43764459 -421.80078125 997.97265625 C-429.4046612 993.74532439 -437.0178621 989.53527112 -444.63705444 985.33563232 C-454.39758202 979.95547008 -464.15716134 974.57353059 -473.90527344 969.17089844 C-475.58983963 968.23774858 -477.27537032 967.30634054 -478.9609375 966.375 C-496.8309183 956.46205045 -496.8309183 956.46205045 -498.96484375 954.328125 C-499.22318902 952.83088469 -499.42135269 951.32321096 -499.59510058 949.81381291 C-499.7104839 948.83009779 -499.82586722 947.84638267 -499.944747 946.832858 C-500.13075531 945.18897102 -500.13075531 945.18897102 -500.32052135 943.5118742 C-500.45494751 942.35456803 -500.58937367 941.19726187 -500.72787336 940.00488582 C-501.10343402 936.76378559 -501.4750325 933.52225806 -501.84503835 930.28051984 C-502.24738828 926.76385505 -502.6547758 923.24777352 -503.06154567 919.73161775 C-503.77501637 913.55814472 -504.48522083 907.3843026 -505.19333267 901.21021271 C-506.24661441 892.02668677 -507.30487287 882.84373921 -508.36417795 873.66090635 C-510.14721967 858.2029436 -511.92618122 842.74451382 -513.70285606 827.2858181 C-515.4667758 811.93822606 -517.23250657 796.59084416 -519.00065041 781.24373817 C-519.11061866 780.28922874 -519.22058691 779.3347193 -519.33388754 778.35128533 C-519.89249171 773.5027607 -520.45112829 768.65423981 -521.0097774 763.80572037 C-524.97346636 729.40432863 -528.93310925 695.00247227 -532.89038086 660.6003418 C-536.72073865 627.30160886 -540.55285689 594.00307933 -544.38745117 560.70483398 C-544.50514574 559.68281 -544.62284031 558.66078602 -544.74410137 557.60779161 C-546.04416564 546.31844729 -547.34428101 535.02910886 -548.64442003 523.73977315 C-550.95184117 503.70400404 -553.25903358 483.66820859 -555.56611633 463.63240051 C-555.6780329 462.66046739 -555.78994946 461.68853427 -555.90525744 460.68714863 C-559.30909472 431.12661734 -562.7117949 401.56595532 -566.1134491 372.00517273 C-566.21753484 371.10066115 -566.32162059 370.19614957 -566.42886044 369.26422855 C-568.40148999 352.12194293 -570.37408342 334.97965314 -572.34621859 317.83731063 C-572.7908501 313.97248141 -573.23552937 310.10765769 -573.68032406 306.24284724 C-574.43695527 299.66822426 -575.19338475 293.0935789 -575.94802036 286.51872652 C-576.34381824 283.07044558 -576.73990543 279.62219792 -577.13617516 276.17397118 C-577.21275035 275.50761198 -577.28932555 274.84125278 -577.36822121 274.15470089 C-578.34832416 265.63060594 -579.3404814 257.10799295 -580.34525886 248.58676856 C-580.92039411 243.70869264 -581.49218321 238.83022668 -582.06392113 233.95175157 C-582.45206697 230.6543096 -582.84577714 227.35756488 -583.23972672 224.06081218 C-583.47141365 222.08569243 -583.70282583 220.11054043 -583.93391132 218.13535023 C-584.03968624 217.26566799 -584.14546117 216.39598576 -584.25444139 215.49994952 C-584.88165932 210.07242301 -585.05542124 204.79236806 -584.96484375 199.328125 C-574.23171955 194.523223 -563.11207702 190.78388285 -552.0166626 186.91897583 C-545.96388257 184.80988866 -539.91561129 182.68794765 -533.8671875 180.56640625 C-532.62324219 180.13027512 -531.37929688 179.69414398 -530.09765625 179.24479675 C-517.57487308 174.84948067 -505.07958597 170.37881851 -492.58984375 165.890625 C-490.38998084 165.1004854 -488.19011101 164.31036507 -485.99023438 163.52026367 C-482.66479257 162.32579599 -479.33938159 161.13124288 -476.0140686 159.93641663 C-463.52339261 155.44911275 -451.0262138 150.98004743 -438.52734375 146.515625 C-436.80313705 145.89968475 -436.80313705 145.89968475 -435.0440979 145.27130127 C-415.6403549 138.34106657 -396.22318568 131.44903775 -376.80275345 124.56576157 C-357.26828109 117.64196524 -337.74886081 110.67742379 -318.24380493 103.67111206 C-300.16654417 97.17881178 -282.06958013 90.74326787 -263.96484375 84.328125 C-244.43077515 77.40646244 -224.90746058 70.45609073 -205.40234375 63.453125 C-189.49413992 57.74159541 -173.58038804 52.04660591 -157.65234375 46.390625 C-135.08416091 38.37623232 -112.53036742 30.32179412 -89.97824097 22.26234436 C-81.69102871 19.30112532 -73.40255453 16.34346061 -65.11347771 13.38746643 C-61.21814074 11.99823077 -57.32298421 10.60848925 -53.42782688 9.21875 C-50.3092711 8.10614786 -47.19055455 6.99399959 -44.07162476 5.88244629 C-40.62556731 4.6542619 -37.17992742 3.42491285 -33.734375 2.1953125 C-32.71312531 1.8316861 -31.69187561 1.46805969 -30.63967896 1.09341431 C-29.69744476 0.75691864 -28.75521057 0.42042297 -27.78442383 0.07373047 C-26.96960037 -0.21680206 -26.15477692 -0.50733459 -25.31526184 -0.80667114 C-23.64897198 -1.42004304 -21.99781376 -2.07525152 -20.35906982 -2.75881958 C-13.2316614 -5.4769083 -6.73191416 -2.49019154 0 0 Z " fill="#6610F2" transform="translate(688.96484375,65.671875)"/>
<path d="M0 0 C4.00040871 0.66673478 6.98296257 1.20944845 10.65771484 2.5402832 C11.53991196 2.8568689 12.42210907 3.17345459 13.33103943 3.49963379 C14.28140579 3.84651245 15.23177216 4.19339111 16.2109375 4.55078125 C17.73250206 5.0990155 17.73250206 5.0990155 19.2848053 5.6583252 C21.48901389 6.45320083 23.69237693 7.25042422 25.89498901 8.04971313 C29.44015519 9.33614278 32.98745824 10.6165114 36.53540039 11.89526367 C40.2635834 13.23913441 43.99169051 14.58320731 47.71894836 15.92964172 C60.61427214 20.5876826 73.5246021 25.20343326 86.4375 29.8125 C88.76066212 30.64224892 91.08382292 31.47200155 93.40698242 32.30175781 C111.64683979 38.81405882 129.89969895 45.28944335 148.15450287 51.75968552 C168.07410139 58.82013078 187.97877183 65.92104278 207.86956787 73.06231689 C222.67546216 78.37792396 237.48819435 83.673452 252.3125 88.9375 C268.98515793 94.8582792 285.65106833 100.79769949 302.3125 106.75 C303.48871918 107.17016388 304.66493835 107.59032776 305.87680054 108.02322388 C317.71704248 112.25281249 329.55677453 116.48382551 341.39581299 120.71678162 C347.13870302 122.77000328 352.88179259 124.82266629 358.625 126.875 C359.76833801 127.28358246 360.91167603 127.69216492 362.08966064 128.11312866 C381.43694966 135.02568698 400.79794134 141.89914868 420.16269684 148.76256561 C439.68156532 155.68078593 459.18627659 162.63732181 478.67471313 169.64089966 C492.05101623 174.44750019 505.43711713 179.22534017 518.8359375 183.96875 C520.27089672 184.47692208 521.70585359 184.98510078 523.14080811 185.49328613 C529.43949287 187.72358697 535.73868321 189.95242509 542.03983116 192.17575836 C543.99890082 192.86737057 545.957607 193.56000111 547.91616821 194.25305176 C550.31245704 195.10087663 552.70937041 195.94693922 555.10702515 196.79089355 C560.48954585 198.69752643 565.78900567 200.66284618 571 203 C570.40756925 213.19024125 569.49302698 223.29684718 568.30645752 233.43673706 C568.13371126 234.93640443 567.96128305 236.43610846 567.78914011 237.9358452 C567.31880663 242.02547816 566.84401815 246.11458297 566.36845306 250.20361041 C565.85172647 254.65359004 565.33922968 259.10405714 564.82619286 263.55446339 C563.93030873 271.32092638 563.03177858 279.0870796 562.1314888 286.85303307 C560.80176693 298.32348857 559.47632017 309.79443523 558.15179117 321.26549139 C555.94333564 340.39081473 553.73163423 359.51576134 551.5178833 378.64047241 C549.34153343 397.44211436 547.16614304 416.24386676 544.99237061 435.04580688 C544.85763278 436.21121478 544.72289495 437.37662267 544.58407415 438.57734596 C543.62808858 446.84623434 542.67218588 455.1151323 541.71630859 463.3840332 C541.58060163 464.55797096 541.44489467 465.73190871 541.30507538 466.94142033 C540.06670106 477.65402877 538.82833125 488.36663774 537.59003055 499.07925469 C536.20383639 511.07116511 534.81743436 523.06305146 533.43059921 535.05488777 C526.36883181 596.11774287 519.32786811 657.182923 512.32426438 718.25247736 C510.89421134 730.72205713 509.4629922 743.19150274 508.03125 755.66088867 C507.8171386 757.52572988 507.6030287 759.39057126 507.38892031 761.25541282 C506.54918218 768.56932483 505.70944042 775.88323643 504.86959743 783.1971364 C502.55212289 803.37965302 500.23799405 823.56254529 497.93087648 843.74624861 C496.34394431 857.62872902 494.75216378 871.51064635 493.15531075 885.39198917 C492.21842233 893.53783772 491.28555813 901.68412373 490.35855284 909.83110304 C489.67358468 915.84732384 488.98142323 921.86269302 488.2863555 927.87775636 C488.00674432 930.30766811 487.7295417 932.73785841 487.45493174 935.16834044 C487.08379415 938.45022209 486.70411193 941.7310029 486.32217407 945.01164246 C486.16408785 946.43755588 486.16408785 946.43755588 486.00280797 947.89227563 C485.01934367 956.19284328 485.01934367 956.19284328 483 960 C480.93481445 961.5546875 480.93481445 961.5546875 478.36328125 962.875 C477.40591064 963.37813721 476.44854004 963.88127441 475.4621582 964.3996582 C474.422771 964.927771 473.38338379 965.45588379 472.3125 966 C470.10312475 967.15817082 467.89481539 968.31837692 465.6875 969.48046875 C464.00333984 970.360979 464.00333984 970.360979 462.28515625 971.25927734 C457.40426949 973.84553794 452.60782861 976.57176531 447.8125 979.3125 C439.20132244 984.2094606 430.55194212 989.03339677 421.875 993.8125 C421.26735809 994.14721313 420.65971619 994.48192627 420.03366089 994.82678223 C416.93302649 996.53439134 413.83188862 998.24108358 410.73046875 999.94726562 C404.60963765 1003.31476233 398.49215702 1006.68833511 392.375 1010.0625 C391.77419617 1010.39383942 391.17339233 1010.72517883 390.55438232 1011.06655884 C380.746278 1016.47624108 370.95239045 1021.91119422 361.16357422 1027.35571289 C352.3420674 1032.26004908 343.50646655 1037.13841788 334.66699219 1042.01025391 C325.93519182 1046.82322227 317.21331002 1051.65360391 308.5 1056.5 C299.17698064 1061.68552014 289.84295489 1066.85052972 280.5 1072 C266.64889395 1079.6347533 252.82157204 1087.31190237 239 1095 C224.56889842 1103.02714174 210.12972323 1111.03899193 195.6675415 1119.00997925 C186.93555554 1123.82303501 178.21348898 1128.65350437 169.5 1133.5 C159.5672747 1139.02464229 149.62101873 1144.52413752 139.66699219 1150.01025391 C130.93519182 1154.82322227 122.21331002 1159.65360391 113.5 1164.5 C104.17698064 1169.68552014 94.84295489 1174.85052972 85.5 1180 C72.78153637 1187.01043886 60.08263617 1194.05563289 47.39111328 1201.11474609 C43.88531651 1203.06375708 40.37838757 1205.01071622 36.87109375 1206.95703125 C35.09869315 1207.94077833 33.32631589 1208.92456745 31.55395508 1209.90838623 C29.83876556 1210.86042101 28.12348505 1211.81229186 26.40820312 1212.76416016 C19.38694203 1216.6638178 12.37679197 1220.58233878 5.40161133 1224.56396484 C1.10775555 1227 1.10775555 1227 0 1227 C0 822.09 0 417.18 0 0 Z " fill="#5014B2" transform="translate(675,62)"/>
<path d="M0 0 C222.54491564 0 222.54491564 0 265 23 C265.66773438 23.35465332 266.33546875 23.70930664 267.0234375 24.07470703 C312.27725814 48.16456414 344.24694415 87.5937977 359.55615234 136.46020508 C366.21422802 158.63642177 369.38899016 180.52360224 369.25 203.625 C369.24656586 204.55641815 369.24313171 205.4878363 369.23959351 206.44747925 C369.10485149 237.57689673 365.70898071 269.20733748 353 298 C352.67 298.99 352.34 299.98 352 301 C351.34 301 350.68 301 350 301 C349.83721558 302.32185303 349.83721558 302.32185303 349.67114258 303.67041016 C348.98649169 307.06701578 347.98860483 309.29030862 346.26171875 312.2734375 C345.69525635 313.25505859 345.12879395 314.23667969 344.54516602 315.24804688 C343.93213623 316.27994141 343.31910645 317.31183594 342.6875 318.375 C341.73798462 319.98084961 341.73798462 319.98084961 340.76928711 321.61914062 C329.27250953 340.77899643 315.0920953 358.65026258 297 372 C296.09241943 372.6794165 296.09241943 372.6794165 295.16650391 373.37255859 C278.9056901 385.4854091 261.85600269 394.60637855 243 402 C241.45892578 402.61488281 241.45892578 402.61488281 239.88671875 403.2421875 C167.7024604 430.83261514 63.30838019 416 0 416 C0 278.72 0 141.44 0 0 Z " fill="#FEFDFD" transform="translate(714,443)"/>
<path d="M0 0 C29.7 0 59.4 0 90 0 C105.10526316 18.34210526 105.10526316 18.34210526 111.51171875 26.76171875 C114.26413634 30.36546808 117.09774217 33.90241146 119.9375 37.4375 C127.42577443 46.76147761 134.80715732 56.16707646 142.140625 65.61328125 C145.45095061 69.86245971 148.783306 74.09433967 152.11328125 78.328125 C153.98800326 80.71172715 155.8604327 83.09709493 157.73046875 85.484375 C162.95631992 92.15252336 168.21997719 98.7883156 173.52148438 105.39648438 C176.85466376 109.55543207 180.15485297 113.73859896 183.4375 117.9375 C187.41929886 123.02908711 191.47327456 128.05686804 195.5625 133.0625 C199.46685066 137.84387357 203.31875295 142.65423382 207.0625 147.5625 C210.62883758 152.23682596 214.25606465 156.85333721 217.9375 161.4375 C223.21149028 168.00472927 228.42955279 174.61352484 233.62353516 181.24414062 C235.52243038 183.66642769 237.42536089 186.08553026 239.32861328 188.50439453 C240.26427257 189.69462 241.19887183 190.88567967 242.13232422 192.07763672 C244.15308438 194.65787875 246.18335772 197.22640692 248.24609375 199.7734375 C248.88675781 200.57007813 249.52742187 201.36671875 250.1875 202.1875 C250.73792969 202.86167969 251.28835938 203.53585937 251.85546875 204.23046875 C253 206 253 206 253 209 C253.66 209 254.32 209 255 209 C255.495 105.545 255.495 105.545 256 0 C293.95 0 331.9 0 371 0 C371 137.28 371 274.56 371 416 C340.64 416 310.28 416 279 416 C277.02 413.36 275.04 410.72 273 408 C271.65941162 406.3223922 270.30636683 404.65461438 268.9375 403 C268.16792969 402.06542969 267.39835937 401.13085938 266.60546875 400.16796875 C265.98164307 399.4107251 265.98164307 399.4107251 265.34521484 398.63818359 C262.80095664 395.53982196 260.27656105 392.42529542 257.75 389.3125 C254.39185942 385.17523931 251.032997 381.03863594 247.6640625 376.91015625 C242.50922147 370.58826775 237.38830212 364.24740444 232.375 357.8125 C228.41125249 352.726478 224.31010256 347.78366515 220.11791992 342.88500977 C216.40191135 338.52325347 212.8596838 334.04320204 209.3425293 329.52050781 C204.99001751 323.94277049 200.49210343 318.49005972 195.98339844 313.03833008 C192.32087179 308.60848897 188.69773144 304.15198472 185.12109375 299.65234375 C182.26804033 296.08471342 179.38349326 292.54304387 176.5 289 C172.35774334 283.90919767 168.23505026 278.8043999 164.14453125 273.671875 C161.90136271 270.87710764 159.6394877 268.09824944 157.37524414 265.32055664 C152.71844236 259.60750356 148.09378749 253.87572013 143.5625 248.0625 C138.85322517 242.02487889 134.00972483 236.104486 129.12133789 230.21118164 C124.68199139 224.85492156 120.34827519 219.43534398 116 214 C115.67 280.66 115.34 347.32 115 416 C77.05 416 39.1 416 0 416 C0 278.72 0 141.44 0 0 Z " fill="#FDFCFD" transform="translate(272,443)"/>
<path d="M0 0 C72.25435418 0 72.25435418 0 86.375 7.75 C87.35122314 8.261073 87.35122314 8.261073 88.34716797 8.7824707 C94.29821167 11.98242186 99.71410826 15.79698191 105 20 C106.03125 20.763125 107.0625 21.52625 108.125 22.3125 C128.34068856 41.20977409 138.00227489 69.00365648 139.22241211 96.15722656 C139.36023473 100.35499379 139.38624595 104.55026319 139.375 108.75 C139.37478851 109.48779694 139.37457703 110.22559387 139.37435913 110.98574829 C139.34009472 123.0200279 138.39270158 134.40849526 135 146 C134.69521729 147.05985107 134.69521729 147.05985107 134.38427734 148.14111328 C126.88619186 173.58755712 111.36116786 194.12399256 88 207 C87.12988281 207.48339844 86.25976562 207.96679688 85.36328125 208.46484375 C59.58682127 221.4517585 26.54195911 216 0 216 C0 144.72 0 73.44 0 0 Z " fill="#5015B2" transform="translate(828,543)"/>
</svg>
